<?xml version="1.0" standalone="no"?>
<!DOCTYPE svg PUBLIC "-//W3C//DTD SVG 20010904//EN"
 "http://www.w3.org/TR/2001/REC-SVG-20010904/DTD/svg10.dtd">
<svg version="1.0" xmlns="http://www.w3.org/2000/svg"
 width="506.000000pt" height="493.000000pt" viewBox="0 0 506.000000 493.000000"
 preserveAspectRatio="xMidYMid meet">

<g transform="translate(0.000000,493.000000) scale(0.100000,-0.100000)"
fill="#000000" stroke="none">
<path d="M2432 3682 c-23 -44 -107 -190 -402 -692 -69 -118 -184 -314 -255
-435 -204 -349 -389 -663 -520 -885 -67 -113 -175 -295 -240 -405 -65 -110
-172 -292 -240 -405 -67 -113 -136 -231 -154 -262 l-32 -58 225 0 225 0 29 43
c17 23 61 96 99 162 38 66 100 172 137 235 38 63 80 135 93 160 14 25 67 115
118 200 140 236 205 348 205 355 0 4 26 50 59 103 32 54 101 171 154 262 52
91 152 264 222 385 71 121 164 284 209 362 45 79 86 143 92 143 9 0 205 -335
235 -402 7 -16 16 -28 21 -28 21 0 298 209 306 231 2 4 -19 45 -46 91 -68 115
-311 541 -417 731 -48 86 -90 157 -94 157 -3 0 -17 -22 -29 -48z"/>
<path d="M3198 2192 c-48 -43 -115 -98 -147 -122 -33 -25 -60 -52 -61 -60 0
-8 21 -51 46 -95 25 -44 82 -145 126 -225 140 -253 260 -460 265 -460 9 0 93
69 156 130 63 58 127 140 127 160 0 6 -65 125 -144 263 -79 139 -172 305 -207
369 -35 65 -66 118 -69 117 -3 0 -44 -35 -92 -77z"/>
<path d="M2052 1350 c-40 -27 -103 -72 -140 -101 -270 -212 -381 -350 -382
-473 0 -103 66 -178 231 -261 351 -177 866 -221 1278 -109 226 61 521 208 651
324 41 37 24 30 -42 -17 -72 -52 -285 -149 -411 -187 -159 -48 -297 -67 -486
-65 -183 1 -271 18 -410 78 -135 58 -194 97 -285 186 -150 148 -182 265 -112
410 37 78 86 147 154 218 26 26 42 47 37 46 -6 0 -43 -22 -83 -49z"/>
</g>
</svg>
